#N canvas 440 40 585 567 10;
#X obj 86 330 vd~ test1 500;
#X obj 86 307 line~;
#X obj 88 85 loadbang;
#X obj 166 84 bng 15 250 50 0 empty empty empty 17 7 0 10 -262144 -1
-1;
#X obj 144 509 delwrite~ test1 6000;
#X obj 86 227 + 1;
#X obj 144 447 soundinput;
#X text 436 47 Analysis modules needed:;
#X text 440 122 playback direct input;
#X text 81 49 Generate 2 random lines for pitch shifting;
#X obj 482 201 soundoutput;
#X obj 310 512 soundoutput;
#X obj 482 146 soundinput;
#X floatatom 198 84 5 0 0 0 - - -;
#X msg 86 288 \$1 1000;
#X obj 87 204 random 4;
#X obj 126 137 f;
#X obj 159 138 + 1;
#X obj 158 161 % 16;
#X msg 220 331 0.2;
#N canvas 0 22 450 300 noisy 0;
#X obj 128 55 env~;
#X obj 102 273 outlet;
#X obj 178 276 outlet;
#X obj 127 159 +;
#X obj 128 32 inlet~;
#X floatatom 42 208 5 0 0 0 - - -;
#X obj 168 162 * 0.98;
#X obj 126 185 * 0.02;
#X obj 192 33 inlet;
#X obj 192 86 f;
#X msg 193 58 bang;
#X obj 192 119 * 50;
#X obj 266 277 outlet;
#X obj 116 235 moses 80;
#X connect 0 0 3 0;
#X connect 0 0 9 1;
#X connect 3 0 6 0;
#X connect 3 0 7 0;
#X connect 4 0 0 0;
#X connect 6 0 3 1;
#X connect 7 0 5 0;
#X connect 7 0 12 0;
#X connect 7 0 13 0;
#X connect 8 0 10 0;
#X connect 9 0 11 0;
#X connect 10 0 9 0;
#X connect 11 0 3 1;
#X connect 13 0 1 0;
#X connect 13 1 2 0;
#X restore 188 297 pd noisy;
#X obj 388 459 delread~ test1 1000;
#X obj 86 356 *~ 0.6;
#X obj 86 268 + 1000;
#X obj 88 107 metro 250;
#X obj 86 380 lop~ 1000;
#X obj 312 485 delread~ test1 1500;
#X msg 187 331 0.8;
#X floatatom 158 181 5 0 0 0 - - -;
#X obj 86 246 * 333;
#X obj 346 117 adc~;
#X obj 347 146 *~ 8;
#X connect 0 0 20 0;
#X connect 0 0 22 0;
#X connect 0 0 11 0;
#X connect 0 0 11 1;
#X connect 1 0 0 0;
#X connect 2 0 24 0;
#X connect 3 0 24 0;
#X connect 5 0 29 0;
#X connect 6 0 4 0;
#X connect 6 1 4 0;
#X connect 12 0 10 0;
#X connect 12 1 10 1;
#X connect 13 0 24 1;
#X connect 14 0 1 0;
#X connect 15 0 5 0;
#X connect 16 0 17 0;
#X connect 17 0 18 0;
#X connect 18 0 16 1;
#X connect 18 0 28 0;
#X connect 19 0 22 1;
#X connect 20 0 27 0;
#X connect 20 1 19 0;
#X connect 21 0 11 1;
#X connect 22 0 25 0;
#X connect 23 0 14 0;
#X connect 24 0 16 0;
#X connect 24 0 15 0;
#X connect 25 0 4 0;
#X connect 26 0 11 0;
#X connect 27 0 22 1;
#X connect 29 0 23 0;
#X connect 30 0 31 0;
#X connect 31 0 4 0;
#X connect 31 0 10 0;
#X connect 31 0 10 1;
